<?xml version="1.0" standalone="no"?>
<!DOCTYPE svg PUBLIC "-//W3C//DTD SVG 20010904//EN"
 "http://www.w3.org/TR/2001/REC-SVG-20010904/DTD/svg10.dtd">
<svg version="1.0" xmlns="http://www.w3.org/2000/svg"
 width="640.000000pt" height="640.000000pt" viewBox="0 0 640.000000 640.000000"
 preserveAspectRatio="xMidYMid meet">

<g transform="translate(0.000000,640.000000) scale(0.100000,-0.100000)"
fill="#000000" stroke="none">
<path d="M1140 4581 c-7 -19 -17 -28 -26 -24 -16 6 -18 -6 -5 -40 8 -19 6 -27
-5 -31 -9 -3 -14 1 -14 14 0 21 -38 53 -52 44 -5 -3 -18 4 -28 16 -15 18 -25
20 -51 15 -19 -4 -33 -15 -36 -26 -4 -13 -14 -19 -33 -19 -16 0 -30 -7 -34
-15 -3 -8 -14 -15 -24 -15 -23 0 -37 -15 -45 -49 -5 -22 14 -57 25 -45 3 2 10
-2 17 -9 9 -12 4 -15 -29 -20 -24 -3 -49 -14 -59 -26 -21 -25 -53 -27 -71 -6
-11 14 -14 13 -25 -1 -11 -15 -14 -15 -35 7 l-23 24 6 -39 c4 -21 16 -50 29
-63 17 -19 20 -28 12 -41 -17 -27 -45 -20 -64 16 l-18 32 -7 -27 c-14 -53 -14
-88 2 -130 17 -47 24 -51 43 -28 9 11 16 13 24 5 5 -5 18 -10 28 -10 10 0 18
-4 18 -9 0 -5 -11 -8 -25 -5 -18 3 -25 0 -25 -12 0 -11 -6 -15 -20 -11 -11 3
-20 1 -20 -4 0 -6 -8 -9 -18 -7 -13 2 -16 -3 -14 -23 3 -28 -25 -49 -38 -28
-4 6 -10 1 -14 -13 -6 -20 -8 -21 -19 -7 -7 9 -22 19 -34 23 -12 4 -25 17 -29
29 -6 21 -21 36 -35 37 -3 0 -6 -18 -7 -40 -2 -45 15 -80 38 -80 13 0 13 -1 0
-10 -12 -7 -13 -15 -4 -39 18 -46 2 -60 -36 -33 l-31 23 7 -28 c3 -15 13 -34
22 -40 9 -7 12 -16 8 -20 -4 -5 -16 2 -26 14 l-18 22 -6 -30 c-8 -43 18 -92
45 -84 14 5 27 0 42 -15 l20 -23 19 27 c31 42 66 33 83 -24 7 -23 7 -23 -9 -7
-17 17 -36 23 -36 11 0 -3 5 -15 12 -27 10 -19 9 -21 -4 -9 -11 9 -18 10 -23
2 -9 -15 -35 -12 -35 5 0 8 -6 12 -14 9 -8 -3 -21 5 -30 18 l-16 22 0 -27 c0
-34 -8 -34 -37 1 l-23 27 6 -40 c3 -22 12 -47 20 -56 21 -23 17 -32 -10 -25
-17 4 -25 1 -28 -12 -7 -24 1 -42 19 -42 8 0 13 -6 11 -12 -3 -7 -25 -15 -51
-18 -25 -3 -49 -9 -53 -13 -7 -7 33 -10 126 -9 25 0 1349 1 2943 1 l2897 1 0
138 c0 127 -2 138 -20 150 -15 9 -26 10 -40 2 -16 -9 -20 -21 -20 -64 0 -39
-4 -55 -15 -60 -8 -3 -15 -13 -15 -21 0 -10 -7 -15 -17 -13 -11 2 -18 12 -18
25 0 12 -6 28 -12 35 -9 8 -13 43 -13 100 0 81 -2 88 -20 88 -16 0 -20 -7 -20
-35 0 -19 -4 -35 -10 -35 -6 0 -10 35 -10 85 0 69 -3 85 -15 85 -8 0 -15 5
-15 12 0 6 -9 3 -20 -7 -18 -16 -20 -31 -20 -152 0 -73 -4 -133 -9 -133 -11 0
-21 35 -21 76 0 35 -22 59 -45 50 -11 -4 -15 -20 -15 -56 0 -27 -4 -50 -10
-50 -5 0 -10 -11 -10 -25 0 -16 -6 -25 -15 -25 -12 0 -15 18 -15 100 0 81 -3
102 -15 106 -34 14 -45 -14 -45 -120 0 -127 -22 -174 -37 -80 -9 54 -31 88
-49 73 -8 -6 -14 -20 -14 -30 0 -11 -4 -19 -10 -19 -5 0 -10 11 -10 25 0 26
-7 29 -34 19 -11 -4 -16 -19 -16 -44 0 -54 -8 -70 -36 -70 -23 0 -24 3 -24 60
0 33 -4 60 -10 60 -16 0 -30 -37 -30 -80 0 -29 -4 -40 -12 -37 -7 2 -12 10
-10 17 1 6 -7 14 -18 17 -18 5 -20 13 -20 72 0 37 -3 71 -7 74 -14 14 -33 -17
-33 -54 0 -21 -4 -41 -10 -44 -5 -3 -11 -25 -12 -48 -1 -39 -2 -38 -7 13 -3
30 -10 55 -16 55 -5 0 -13 -30 -16 -67 -3 -38 -9 -71 -13 -75 -3 -4 -28 1 -54
10 -50 17 -94 14 -113 -9 -6 -8 -24 -14 -40 -14 -15 0 -31 -5 -35 -11 -4 -7
-25 -9 -60 -4 -47 6 -54 4 -64 -15 -10 -19 -19 -21 -75 -19 -36 1 -70 -3 -77
-9 -10 -8 -24 -8 -53 0 -43 12 -148 14 -232 3 -33 -4 -53 -3 -53 3 0 16 -77
42 -123 42 -24 0 -48 5 -54 11 -8 8 -17 8 -32 0 -14 -8 -33 -8 -63 -1 -24 5
-75 10 -115 10 -39 0 -74 4 -78 9 -3 6 -26 13 -51 17 -37 5 -49 3 -67 -14 -16
-14 -41 -21 -92 -25 -38 -3 -92 -10 -118 -15 -35 -7 -50 -6 -55 3 -14 24 -72
45 -121 45 -27 0 -53 5 -56 10 -4 7 -13 6 -26 -1 -14 -7 -29 -7 -49 -1 -16 6
-32 7 -37 4 -4 -4 3 6 17 22 14 16 19 26 13 22 -9 -5 -11 -2 -7 8 3 9 14 16
23 17 10 0 11 2 3 6 -6 2 -10 10 -6 16 3 7 0 5 -8 -3 -14 -16 -68 -15 -68 0 0
5 8 6 18 3 15 -6 15 -5 3 10 -12 15 -11 17 8 17 11 0 21 6 21 14 0 8 6 17 13
19 6 3 -6 3 -28 1 -29 -3 -36 -1 -25 6 8 5 25 10 38 10 20 0 22 4 16 23 -3 12
-11 24 -15 25 -11 5 -1 22 12 22 6 0 7 -4 4 -10 -3 -5 1 -10 9 -10 9 0 16 7
16 15 0 8 4 15 9 15 5 0 7 9 4 20 -3 11 -12 20 -19 20 -8 0 -14 4 -14 10 0 5
-16 16 -36 25 -23 10 -40 25 -47 45 -7 18 -21 33 -34 36 -31 8 -29 27 2 22 33
-7 41 7 15 25 -25 17 -15 30 14 16 19 -9 19 -8 -3 10 -23 21 -47 29 -37 12 13
-20 -28 -20 -60 0 -39 24 -45 44 -10 35 16 -4 26 -1 30 9 7 18 -3 45 -16 45
-6 0 -8 -6 -5 -14 4 -11 -1 -11 -26 2 -18 8 -35 20 -39 26 -5 8 -8 7 -8 -1 0
-7 -4 -13 -10 -13 -5 0 -7 7 -4 15 5 11 -1 15 -25 15 -17 0 -39 4 -49 9 -9 6
-30 12 -45 16 -18 4 -25 10 -20 18 5 9 3 9 -8 1 -15 -12 -78 -12 -98 1 -7 4
-22 -2 -36 -15 -13 -12 -28 -19 -33 -16 -14 9 -24 -24 -12 -39 8 -9 5 -14 -10
-18 -11 -3 -20 -13 -20 -22 0 -13 -5 -16 -22 -10 -13 4 -38 9 -56 12 -25 4
-31 2 -27 -9 4 -10 -17 -25 -67 -51 -40 -20 -67 -37 -60 -37 6 0 12 -4 12 -10
0 -22 -20 -8 -26 18 -3 15 -8 35 -11 44 -3 12 4 21 20 27 35 14 43 31 15 32
-34 2 -52 -2 -66 -14 -8 -6 -22 -12 -33 -14 -13 -2 -17 2 -12 14 5 13 2 15
-11 10 -10 -4 -23 -7 -29 -7 -7 0 -6 -4 3 -10 12 -8 11 -10 -7 -10 -23 0 -28
17 -23 78 2 32 -30 26 -47 -8 -12 -24 -14 -24 -17 2 -2 18 -26 22 -26 4 0 -9
-4 -16 -9 -16 -4 0 -6 11 -3 25 4 25 4 25 -24 13 -16 -7 -31 -16 -34 -19 -3
-4 -28 -1 -55 5 -38 10 -51 18 -53 34 -3 18 -6 20 -27 10 -36 -16 -56 4 -45
43 10 33 8 34 -21 17 -17 -11 -22 -10 -34 5 -9 13 -29 19 -65 21 -37 1 -55 7
-62 20 -5 9 -21 21 -34 26 -17 7 -24 17 -24 37 0 58 -10 74 -44 72 -17 -1 -39
2 -50 6 -11 5 -34 3 -54 -5 -27 -9 -37 -10 -40 -1 -6 18 -22 13 -22 -8 0 -11
-6 -21 -12 -23 -19 -7 -38 17 -38 46 0 14 -10 37 -23 52 -22 25 -24 26 -53 11
-20 -10 -36 -12 -53 -6 -13 5 -32 7 -42 4 -13 -4 -19 -1 -19 9 0 9 -4 16 -10
16 -5 0 -10 -4 -10 -10 0 -15 -21 -12 -40 5 -16 14 -18 13 -30 -14z m277 -117
c2 -7 -6 -10 -21 -7 -14 3 -23 10 -20 15 8 12 36 6 41 -8z m-27 -34 c0 -5 -9
-10 -21 -10 -11 0 -17 5 -14 10 3 6 13 10 21 10 8 0 14 -4 14 -10z m-30 -34
c0 -3 -4 -8 -10 -11 -5 -3 -10 -1 -10 4 0 6 5 11 10 11 6 0 10 -2 10 -4z m67
-60 c3 -3 -1 -6 -10 -6 -9 0 -17 -4 -17 -10 0 -14 -33 -13 -48 2 -7 7 -12 14
-12 18 0 7 79 4 87 -4z m-82 -26 c10 -11 15 -20 11 -20 -14 0 -46 21 -46 30 0
16 16 11 35 -10z m-65 0 c12 -8 11 -10 -7 -10 -12 0 -25 5 -28 10 -8 13 15 13
35 0z m30 -35 c7 -8 9 -15 5 -15 -4 0 2 -8 13 -17 l20 -18 -20 -20 c-12 -11
-18 -15 -14 -8 4 7 -7 18 -25 27 l-32 16 19 -21 c19 -21 19 -21 -1 -18 -20 4
-32 46 -21 75 7 18 40 18 56 -1z m-620 -54 c0 -3 -11 -7 -25 -7 -28 -2 -30 1
-12 20 11 13 37 4 37 -13z m910 -7 c0 -8 -4 -12 -10 -9 -5 3 -10 13 -10 21 0
8 5 12 10 9 6 -3 10 -13 10 -21z m624 -51 c-22 -16 -44 -17 -44 -2 0 6 6 9 14
6 8 -3 19 5 27 20 12 22 15 23 18 8 2 -10 -5 -25 -15 -32z m-882 15 c-7 -7
-12 -8 -12 -2 0 14 12 26 19 19 2 -3 -1 -11 -7 -17z m-62 2 c0 -5 -2 -10 -4
-10 -3 0 -8 5 -11 10 -3 6 -1 10 4 10 6 0 11 -4 11 -10z m40 -21 c0 -6 -4 -7
-10 -4 -5 3 -10 11 -10 16 0 6 5 7 10 4 6 -3 10 -11 10 -16z m-720 -29 c0 -5
-4 -10 -10 -10 -5 0 -10 5 -10 10 0 6 5 10 10 10 6 0 10 -4 10 -10z m1604 -6
c3 -8 2 -12 -4 -9 -6 3 -10 10 -10 16 0 14 7 11 14 -7z m399 -1 c-7 -2 -19 -2
-25 0 -7 3 -2 5 12 5 14 0 19 -2 13 -5z m-593 -49 c0 -8 -5 -12 -10 -9 -6 4
-8 11 -5 16 9 14 15 11 15 -7z m130 -24 c0 -5 -4 -10 -10 -10 -5 0 -10 5 -10
10 0 6 5 10 10 10 6 0 10 -4 10 -10z m70 6 c0 -3 -4 -8 -10 -11 -5 -3 -10 -1
-10 4 0 6 5 11 10 11 6 0 10 -2 10 -4z m99 -13 c-7 -10 -14 -19 -15 -21 -1 -2
-4 4 -8 13 -3 9 -2 13 4 10 6 -3 10 -1 10 4 0 6 5 11 11 11 8 0 7 -6 -2 -17z
m-275 -8 c3 -9 0 -15 -8 -15 -8 0 -16 7 -20 15 -3 9 0 15 8 15 8 0 16 -7 20
-15z m355 0 c-9 -37 -12 -45 -20 -45 -11 0 -11 7 -3 38 6 21 28 28 23 7z m431
-19 c0 -17 -28 -41 -37 -32 -3 3 -2 6 4 6 6 0 9 9 6 20 -4 14 0 20 11 20 9 0
16 -6 16 -14z m-1440 -26 c0 -21 -16 -35 -24 -22 -8 13 5 53 15 46 5 -3 9 -14
9 -24z m73 15 c-3 -9 -8 -14 -10 -11 -3 3 -2 9 2 15 9 16 15 13 8 -4z m812
-24 c-3 -12 -11 -21 -16 -21 -10 0 -12 43 -2 54 12 12 25 -11 18 -33z m73 13
c-7 -15 -14 -21 -16 -15 -5 16 5 41 17 41 7 0 6 -10 -1 -26z m427 -5 c11 -17
-1 -21 -15 -4 -8 9 -8 15 -2 15 6 0 14 -5 17 -11z m215 -20 c0 -5 -9 -9 -20
-9 -11 0 -20 4 -20 8 0 4 9 8 20 9 11 1 20 -2 20 -8z m-240 -19 c13 -12 30
-18 38 -15 22 8 42 -14 42 -47 l0 -30 -30 25 c-16 14 -38 28 -49 32 -10 3 -21
17 -24 30 -5 30 -6 30 23 5z m288 3 c2 -8 -6 -13 -22 -13 -25 0 -33 10 -19 24
10 10 36 3 41 -11z m-148 -23 c0 -11 -4 -20 -10 -20 -5 0 -10 -12 -10 -27 0
-26 1 -26 15 -7 14 19 14 19 14 -1 0 -11 -6 -33 -14 -50 -12 -27 -13 -28 -14
-7 -1 13 -5 20 -11 17 -13 -8 -13 44 1 84 12 35 29 41 29 11z m187 14 c-3 -3
-12 -4 -19 -1 -8 3 -5 6 6 6 11 1 17 -2 13 -5z m-720 -31 c-9 -9 -20 -13 -24
-9 -4 4 1 14 11 22 25 18 35 8 13 -13z m280 -5 c2 -17 0 -19 -7 -8 -5 8 -6 18
-4 22 8 12 10 10 11 -14z m483 11 c0 -9 -15 -13 -37 -10 -8 1 -10 -5 -7 -14 5
-13 2 -14 -19 -6 -14 5 -27 7 -30 4 -3 -2 -15 -2 -27 2 -16 5 -19 10 -10 20
13 15 130 18 130 4z m-329 -71 c25 -20 39 -40 39 -54 l0 -23 -37 24 c-21 13
-49 35 -63 49 -14 14 -31 26 -37 26 -13 0 -43 27 -43 40 0 14 101 -30 141 -62z
m-1093 21 c-12 -35 -24 -31 -22 8 3 35 2 33 18 27 11 -4 12 -12 4 -35z m470
21 c-7 -11 -15 -15 -17 -9 -2 6 3 15 10 20 20 12 21 11 7 -11z m406 4 c3 -8 2
-12 -4 -9 -6 3 -10 10 -10 16 0 14 7 11 14 -7z m44 -2 c2 -7 -2 -10 -12 -6 -9
3 -16 11 -16 16 0 13 23 5 28 -10z m158 -4 c43 -33 57 -48 45 -48 -6 0 -25 13
-43 29 -18 15 -40 31 -48 34 -13 5 -12 6 1 6 9 1 29 -9 45 -21z m194 6 c0 -10
6 -14 15 -10 8 3 15 0 15 -6 0 -6 -11 -8 -30 -4 -24 4 -30 2 -30 -12 0 -9 -12
-25 -25 -35 l-24 -17 11 31 c19 55 68 93 68 53z m-1368 -24 c-4 -3 -10 -9 -14
-15 -7 -8 -6 1 1 45 1 3 5 -2 11 -10 5 -8 6 -17 2 -20z m-18 -30 c5 0 6 -3 2
-7 -4 -5 -18 -8 -29 -8 -12 0 -22 -4 -22 -10 0 -19 -16 -35 -36 -35 -22 0 -26
28 -4 36 8 4 15 17 15 29 0 30 20 36 44 13 11 -10 24 -18 30 -18z m1122 -5
c23 -16 55 -37 71 -46 50 -27 65 -74 59 -185 -3 -53 -7 -99 -10 -102 -4 -3 -6
0 -6 6 0 19 -35 32 -66 23 -25 -6 -33 -3 -59 25 l-31 33 -95 -3 c-52 -2 -102
-6 -111 -11 -15 -6 -18 -2 -19 21 0 25 -1 26 -9 9 -6 -13 -9 -15 -9 -5 -1 13
-2 13 -12 0 -8 -11 -12 -12 -16 -2 -2 6 -9 10 -14 6 -15 -9 -22 25 -9 41 6 8
9 19 5 24 -3 7 0 8 9 5 10 -4 14 0 13 15 -1 12 -7 21 -14 21 -14 0 -17 -6 -28
-53 -5 -24 -8 -27 -20 -17 -12 10 -15 9 -15 -4 0 -10 -4 -14 -10 -11 -23 14
-5 54 30 68 10 3 7 6 -7 6 -34 1 -28 25 12 47 12 7 20 22 20 37 1 37 10 42 50
29 34 -10 35 -9 29 10 -4 12 -2 18 4 15 10 -7 62 14 62 25 0 4 35 6 78 5 69
-1 81 -4 118 -32z m323 16 c18 -12 6 -42 -14 -35 -8 3 -23 3 -32 -1 -17 -6
-17 -7 1 -21 11 -8 14 -14 8 -14 -7 0 -12 -5 -12 -11 0 -5 5 -7 11 -4 6 4 13
-3 16 -14 4 -16 11 -20 25 -15 15 4 19 1 18 -13 -4 -32 0 -43 14 -43 8 0 17
-7 20 -16 3 -8 9 -13 14 -10 4 2 8 -4 8 -15 0 -12 -5 -18 -14 -14 -48 18 -92
17 -119 -5 -15 -12 -30 -31 -33 -42 -3 -12 -22 -32 -43 -45 l-38 -24 7 123 c7
137 20 174 70 196 16 7 36 17 44 22 19 11 32 12 49 1z m-2409 -5 c0 -3 -4 -8
-10 -11 -5 -3 -10 -1 -10 4 0 6 5 11 10 11 6 0 10 -2 10 -4z m1030 -38 c0 -4
-4 -8 -9 -8 -5 0 -16 -2 -23 -5 -17 -7 -22 36 -5 47 11 7 37 -16 37 -34z
m-587 11 c-6 -6 -17 -8 -24 -3 -9 5 -8 9 7 14 23 9 31 3 17 -11z m2066 -29
l-1 -25 -8 25 c-4 14 -8 32 -9 40 -1 13 0 13 9 0 5 -8 9 -26 9 -40z m-1661 28
c-2 -6 -10 -14 -16 -16 -7 -2 -10 2 -6 12 7 18 28 22 22 4z m892 3 c0 -5 -7
-11 -15 -15 -15 -5 -20 5 -8 17 9 10 23 9 23 -2z m-1900 -19 c0 -13 -12 -22
-22 -16 -10 6 -1 24 13 24 5 0 9 -4 9 -8z m750 -2 c0 -5 -9 -10 -20 -10 -11 0
-20 5 -20 10 0 6 9 10 20 10 11 0 20 -4 20 -10z m371 -13 c-10 -9 -11 -8 -5 6
3 10 9 15 12 12 3 -3 0 -11 -7 -18z m372 -28 c-18 -31 -33 -30 -33 3 0 17 2
18 15 8 9 -8 15 -9 15 -2 0 6 -5 14 -10 17 -6 4 -8 11 -4 16 4 6 11 6 20 -2
12 -10 11 -15 -3 -40z m297 36 c0 -8 -2 -15 -4 -15 -2 0 -6 7 -10 15 -3 8 -1
15 4 15 6 0 10 -7 10 -15z m607 -22 c-3 -10 -5 -4 -5 12 0 17 2 24 5 18 2 -7
2 -21 0 -30z m221 5 c9 -32 4 -57 -5 -30 -3 6 -8 10 -11 8 -4 -2 -7 9 -7 25 0
39 12 37 23 -3z m-1080 -3 c-3 -3 -9 2 -12 12 -6 14 -5 15 5 6 7 -7 10 -15 7
-18z m1109 -1 c1 -18 -2 -23 -9 -16 -6 6 -8 18 -5 26 9 22 12 20 14 -10z m63
-10 c0 -27 -18 -23 -22 6 -4 24 -2 27 9 19 7 -7 13 -17 13 -25z m-2010 16 c0
-5 -5 -10 -11 -10 -5 0 -7 5 -4 10 3 6 8 10 11 10 2 0 4 -4 4 -10z m-105 -30
c-17 -19 -17 -20 0 -20 21 0 17 -12 -22 -72 l-28 -43 -3 62 c-3 70 8 92 47 93
23 0 24 -1 6 -20z m71 4 c-1 -9 -10 -20 -19 -26 -14 -7 -17 -4 -17 17 0 18 5
25 19 25 12 0 18 -6 17 -16z m197 -11 c10 -3 17 0 17 8 0 10 3 10 14 -1 26
-29 49 -129 26 -115 -5 3 -10 -1 -10 -9 0 -8 5 -18 10 -21 6 -3 10 -25 10 -47
l0 -41 -81 6 c-45 3 -85 9 -88 14 -10 14 -60 33 -73 28 -33 -11 -89 -14 -110
-5 -13 5 -16 9 -8 9 8 1 21 13 28 28 14 32 16 57 3 48 -6 -3 -9 4 -8 15 1 18
5 21 22 20 3 -1 17 8 31 19 23 18 28 19 41 6 19 -19 43 -19 43 0 0 9 9 15 25
15 14 0 24 3 24 8 -6 34 1 41 34 30 17 -5 40 -12 50 -15z m268 16 c12 -8 12
-10 0 -18 -12 -8 -12 -11 0 -24 8 -8 25 -18 37 -21 17 -6 22 -3 22 11 0 14 7
18 26 18 41 -2 54 -29 54 -113 l0 -73 -32 3 c-25 2 -37 10 -48 34 -16 30 -40
35 -40 8 0 -20 -20 -17 -21 4 0 10 -3 12 -6 4 -2 -6 -10 -9 -15 -5 -7 4 -9 -1
-6 -14 7 -26 -20 -43 -83 -50 l-49 -6 0 30 c0 17 9 38 20 48 11 10 20 22 20
27 0 5 -10 -1 -22 -12 l-23 -21 -3 41 c-2 23 2 47 8 55 8 9 8 14 0 17 -16 5
-1 36 21 43 10 4 19 10 19 15 0 12 103 11 121 -1z m227 -15 c13 -9 19 -20 15
-27 -4 -7 -8 -16 -8 -21 0 -5 -6 -11 -14 -14 -9 -3 -11 1 -7 16 5 16 1 21 -26
27 l-33 8 29 4 c22 4 26 7 15 14 -8 5 -9 9 -4 9 6 0 21 -7 33 -16z m430 -6 c5
-7 13 -34 17 -60 7 -45 6 -47 -16 -41 -23 6 -24 6 -6 -14 16 -18 16 -21 2 -26
-8 -4 -15 -13 -15 -21 0 -29 -50 -39 -190 -39 -102 0 -105 0 -111 24 -4 13 -7
18 -8 12 -1 -7 -8 -13 -16 -13 -8 0 -15 -4 -15 -10 0 -18 -29 -11 -40 9 -15
29 -12 60 11 108 23 48 25 49 51 27 14 -13 21 -14 32 -5 8 7 19 10 24 7 5 -3
25 0 45 6 28 9 43 8 74 -5 29 -11 44 -12 58 -4 14 7 20 7 23 -1 7 -22 22 -12
36 23 16 37 27 43 44 23z m852 -23 c20 -24 6 -28 -15 -5 -10 11 -13 20 -8 20
6 0 16 -7 23 -15z m-2152 -44 c4 -52 -6 -64 -41 -56 -23 6 -25 10 -16 26 12
23 4 40 -16 32 -8 -3 -15 -1 -15 5 0 6 -9 8 -20 5 -14 -4 -20 0 -20 10 0 16
29 22 95 22 28 0 30 -3 33 -44z m-247 -38 c16 -10 29 -21 29 -25 0 -13 -18
-19 -25 -7 -4 5 -13 8 -19 6 -20 -8 -40 9 -33 27 8 20 12 20 48 -1z m1079 -59
c0 -21 -4 -33 -10 -29 -5 3 -10 22 -10 41 0 21 4 33 10 29 6 -3 10 -22 10 -41z
m-1023 0 c-3 -3 -12 -4 -19 -1 -8 3 -5 6 6 6 11 1 17 -2 13 -5z m-153 -10 c18
-7 12 -24 -10 -24 -8 0 -14 7 -14 15 0 17 2 18 24 9z m-164 -28 c0 -2 -7 -6
-15 -10 -8 -3 -15 -1 -15 4 0 6 7 10 15 10 8 0 15 -2 15 -4z m-75 -16 c3 -5 1
-10 -4 -10 -6 0 -11 5 -11 10 0 6 2 10 4 10 3 0 8 -4 11 -10z"/>
<path d="M1270 4260 c0 -5 5 -10 11 -10 5 0 7 5 4 10 -3 6 -8 10 -11 10 -2 0
-4 -4 -4 -10z"/>
<path d="M2550 3849 c0 -5 5 -7 10 -4 6 3 10 8 10 11 0 2 -4 4 -10 4 -5 0 -10
-5 -10 -11z"/>
<path d="M2388 3773 c12 -2 32 -2 45 0 12 2 2 4 -23 4 -25 0 -35 -2 -22 -4z"/>
<path d="M2460 3770 c0 -5 4 -10 9 -10 5 0 18 -3 28 -7 16 -6 16 -5 4 10 -15
19 -41 23 -41 7z"/>
<path d="M1471 3678 c1 -18 3 -25 6 -15 2 9 14 18 26 18 17 1 18 2 4 6 -9 2
-15 9 -12 14 4 5 -1 9 -9 9 -12 0 -16 -9 -15 -32z"/>
<path d="M1880 3630 c30 -42 40 -45 21 -5 -9 19 -22 34 -29 35 -9 0 -7 -9 8
-30z"/>
<path d="M2750 4309 c0 -5 5 -7 10 -4 6 3 10 8 10 11 0 2 -4 4 -10 4 -5 0 -10
-5 -10 -11z"/>
<path d="M3565 4280 c3 -5 8 -10 11 -10 2 0 4 5 4 10 0 6 -5 10 -11 10 -5 0
-7 -4 -4 -10z"/>
<path d="M3098 4273 c7 -3 16 -2 19 1 4 3 -2 6 -13 5 -11 0 -14 -3 -6 -6z"/>
<path d="M3486 4246 c3 -9 11 -16 16 -16 13 0 5 23 -10 28 -7 2 -10 -2 -6 -12z"/>
<path d="M3290 4240 c0 -5 7 -10 15 -10 8 0 15 5 15 10 0 6 -7 10 -15 10 -8 0
-15 -4 -15 -10z"/>
<path d="M3010 4229 c0 -5 5 -7 10 -4 6 3 10 8 10 11 0 2 -4 4 -10 4 -5 0 -10
-5 -10 -11z"/>
<path d="M3640 4220 c0 -6 7 -10 15 -10 8 0 15 2 15 4 0 2 -7 6 -15 10 -8 3
-15 1 -15 -4z"/>
<path d="M2360 4210 c0 -5 5 -10 11 -10 5 0 7 5 4 10 -3 6 -8 10 -11 10 -2 0
-4 -4 -4 -10z"/>
<path d="M3340 4193 c8 -3 22 -12 30 -19 10 -9 20 -10 30 -4 12 8 11 10 -7 10
-12 0 -25 5 -28 10 -3 6 -14 10 -23 9 -14 0 -14 -2 -2 -6z"/>
<path d="M3420 4191 c0 -5 7 -11 15 -15 9 -3 15 0 15 9 0 8 -7 15 -15 15 -8 0
-15 -4 -15 -9z"/>
<path d="M3678 4193 c7 -3 16 -2 19 1 4 3 -2 6 -13 5 -11 0 -14 -3 -6 -6z"/>
<path d="M2635 4170 c-3 -5 1 -10 9 -10 9 0 16 5 16 10 0 6 -4 10 -9 10 -6 0
-13 -4 -16 -10z"/>
<path d="M3687 4154 c6 -15 23 -19 23 -5 0 5 -7 11 -14 14 -10 4 -13 1 -9 -9z"/>
<path d="M3222 4086 c7 -8 16 -12 21 -9 11 7 -2 23 -19 23 -12 0 -12 -2 -2
-14z"/>
<path d="M3225 4010 c4 -6 11 -8 16 -5 14 9 11 15 -7 15 -8 0 -12 -5 -9 -10z"/>
</g>
</svg>
